<?xml version="1.0" standalone="no"?>
<!DOCTYPE svg PUBLIC "-//W3C//DTD SVG 20010904//EN"
 "http://www.w3.org/TR/2001/REC-SVG-20010904/DTD/svg10.dtd">
<svg version="1.0" xmlns="http://www.w3.org/2000/svg"
 width="512.000000pt" height="512.000000pt" viewBox="0 0 512.000000 512.000000"
 preserveAspectRatio="xMidYMid meet">
<metadata>
Created by potrace 1.16, written by Peter Selinger 2001-2019
</metadata>
<g transform="translate(0.000000,512.000000) scale(0.100000,-0.100000)"
fill="#000000" stroke="none">
<path d="M2130 4689 c-125 -21 -248 -106 -294 -204 -104 -219 -5 -604 220
-854 l48 -53 2 -232 c2 -338 43 -631 129 -921 19 -66 35 -125 35 -131 0 -6
-30 -29 -67 -50 -37 -22 -97 -68 -133 -104 -260 -258 -246 -642 41 -1117 55
-91 185 -269 212 -292 31 -25 17 -31 -72 -31 -204 0 -430 94 -651 273 l-75 60
0 276 c0 243 -3 292 -24 409 -12 74 -21 135 -19 136 44 27 138 106 189 158
170 173 287 417 320 665 15 110 7 342 -15 443 -70 324 -216 510 -400 510 -41
0 -46 3 -80 49 -70 98 -197 171 -339 193 -190 29 -406 -81 -489 -250 -29 -59
-33 -76 -33 -152 0 -117 25 -206 102 -361 l64 -131 -29 -81 c-16 -45 -37 -118
-47 -162 -9 -44 -19 -88 -22 -97 -4 -16 -19 -18 -126 -18 l-122 0 -27 50 c-19
34 -42 57 -74 76 -145 85 -320 -7 -332 -174 -10 -139 122 -254 261 -228 54 10
121 61 148 111 l24 45 116 0 116 0 6 -147 c9 -209 53 -405 129 -573 21 -46 25
-66 16 -69 -6 -2 -41 -19 -76 -38 -141 -75 -233 -163 -286 -273 -59 -124 -45
-282 36 -415 72 -117 189 -221 323 -288 108 -54 177 -71 285 -72 83 0 102 4
155 28 90 42 158 116 195 213 l16 44 84 -64 c169 -127 344 -212 515 -247 99
-21 233 -24 315 -9 50 9 54 8 89 -19 153 -120 345 -172 509 -137 124 26 285
118 375 213 l28 30 65 -24 c320 -116 585 44 799 482 66 135 103 242 117 343 9
66 9 86 -6 135 -33 113 -140 177 -297 177 -38 0 -69 4 -69 8 0 5 6 31 14 58
50 169 65 406 33 524 -9 36 -38 108 -64 160 -39 79 -61 109 -132 180 -68 68
-104 94 -171 128 -47 23 -114 48 -150 57 -299 69 -582 -104 -706 -434 l-32
-84 -102 -4 c-83 -2 -209 -21 -299 -44 -16 -5 -36 52 -81 236 -58 232 -85 435
-96 718 -6 149 -5 177 7 176 8 0 40 -17 73 -37 57 -36 59 -39 85 -117 47 -144
120 -239 224 -289 151 -74 297 -46 440 83 51 46 73 59 108 64 146 20 319 139
424 292 21 30 41 55 44 54 10 -1 110 -122 204 -247 95 -126 215 -313 292 -457
65 -120 153 -209 255 -257 103 -49 155 -58 347 -58 l167 0 -117 -118 c-77 -78
-117 -126 -117 -140 0 -28 34 -62 62 -62 33 0 378 347 378 380 0 33 -345 380
-378 380 -28 0 -62 -34 -62 -62 0 -14 40 -62 117 -140 l117 -118 -165 0 c-180
0 -234 10 -319 56 -75 41 -135 114 -215 259 -116 212 -257 414 -427 612 l-88
101 17 64 c27 98 24 298 -5 408 -66 245 -212 395 -442 456 -91 24 -334 23
-445 -3 l-80 -18 -65 38 c-150 87 -356 124 -530 96z m335 -143 c44 -14 89 -32
99 -39 17 -13 15 -15 -27 -41 -26 -14 -74 -52 -107 -83 -140 -130 -234 -314
-285 -558 -9 -44 -18 -81 -20 -83 -1 -2 -20 18 -40 45 -98 128 -183 381 -172
515 13 151 87 238 231 268 74 16 233 4 321 -24z m765 -88 c131 -32 236 -120
299 -251 54 -113 75 -214 68 -336 -7 -136 -9 -139 -65 -91 -73 61 -204 134
-296 166 l-85 28 -21 59 c-45 124 -131 262 -230 370 l-51 56 43 5 c24 3 54 8
68 10 39 7 220 -4 270 -16z m-403 -156 c77 -90 102 -127 149 -220 l45 -87 -68
-7 c-148 -16 -368 -111 -456 -196 -54 -52 -93 -117 -114 -189 -10 -35 -21 -63
-24 -63 -3 0 -30 17 -60 38 l-54 38 2 65 c3 101 55 288 114 408 43 89 63 117
133 185 55 56 102 91 145 113 l65 32 37 -30 c21 -16 59 -55 86 -87z m244 -474
c28 -106 39 -180 39 -273 0 -111 -10 -164 -42 -232 l-21 -45 -56 5 c-72 7
-227 56 -361 115 -154 67 -153 66 -145 121 16 120 92 207 239 277 108 51 186
72 273 73 l62 1 12 -42z m207 -32 c110 -56 252 -161 252 -186 0 -22 -70 -119
-124 -173 -55 -56 -110 -93 -177 -121 l-36 -15 18 77 c23 95 25 280 4 367 -16
65 -18 85 -10 85 3 0 36 -15 73 -34z m-2014 -80 c50 -23 146 -100 136 -109 -3
-2 -43 -24 -90 -48 -156 -80 -277 -192 -380 -353 -30 -46 -58 -85 -61 -85 -8
-1 -73 142 -95 209 -26 79 -24 193 3 245 28 53 102 121 161 147 92 41 231 39
326 -6z m379 -219 c78 -33 156 -164 204 -342 24 -92 27 -116 27 -295 1 -173
-2 -205 -22 -282 -45 -170 -118 -312 -221 -430 -69 -80 -172 -171 -181 -161
-4 5 -17 42 -30 83 -33 114 -113 312 -175 435 -31 60 -52 111 -48 112 5 2 36
21 70 44 160 104 272 292 318 532 17 87 19 221 6 280 -10 42 -2 46 52 24z
m-167 -54 c19 -130 -22 -339 -94 -478 -42 -82 -145 -191 -212 -225 -41 -21
-45 -21 -55 -5 -5 9 -47 70 -93 136 l-83 119 32 58 c77 137 185 265 282 337
50 37 178 104 199 105 12 0 19 -12 24 -47z m1110 -159 c33 -15 124 -48 203
-74 l145 -48 -34 -21 c-43 -26 -120 -42 -162 -34 -74 14 -165 86 -202 160 -26
52 -27 51 50 17z m-1631 -527 c42 -62 52 -83 41 -89 -21 -12 -155 -33 -162
-25 -13 13 43 210 57 202 5 -4 34 -43 64 -88z m2574 28 c96 -25 162 -65 246
-150 131 -131 192 -289 180 -460 -8 -114 -27 -225 -55 -318 l-22 -73 -201 -27
c-111 -15 -227 -30 -257 -33 l-55 -6 3 125 c7 242 -43 353 -202 442 -60 33
-143 65 -209 80 -25 5 -28 9 -23 33 4 15 25 64 47 109 110 226 328 337 548
278z m-3240 -139 c67 -35 65 -143 -4 -174 -51 -23 -107 -7 -131 39 -47 91 44
182 135 135z m899 -301 c56 -124 138 -358 144 -409 3 -26 -2 -31 -67 -64 -105
-53 -297 -115 -307 -100 -20 32 -79 193 -98 267 -31 121 -50 264 -50 373 l0
97 38 7 c58 10 164 33 197 42 29 8 31 6 59 -42 16 -28 54 -105 84 -171z m1584
-117 c-4 -18 -7 -105 -7 -193 0 -155 1 -162 29 -222 56 -123 180 -200 349
-218 l65 -7 -28 -82 c-33 -99 -145 -326 -160 -326 -8 0 -153 198 -223 305
-127 195 -252 436 -337 650 -16 41 -30 77 -30 79 0 3 82 24 155 39 11 3 59 5
107 6 l88 1 -8 -32z m260 -12 c162 -65 210 -131 216 -298 3 -54 1 -123 -3
-154 l-7 -57 -69 7 c-147 13 -251 81 -279 180 -13 49 -10 322 5 346 9 15 62 6
137 -24z m-663 -175 c132 -313 300 -605 503 -869 l79 -103 -103 -102 c-105
-104 -208 -174 -315 -216 l-52 -20 -66 77 c-151 175 -295 421 -362 621 -32 93
-37 121 -41 228 -4 104 -1 132 17 191 24 81 85 177 144 228 37 32 138 97 143
91 1 -1 25 -58 53 -126z m-996 -283 c19 -74 37 -295 37 -443 l-1 -170 -70 75
c-117 124 -331 422 -311 433 4 2 45 16 92 31 47 15 117 42 155 61 85 40 91 41
98 13z m2835 -112 c93 -49 78 -189 -48 -451 -109 -227 -225 -366 -356 -427
-56 -26 -78 -31 -139 -31 -40 0 -96 8 -123 17 l-51 17 59 80 c161 217 303 493
414 803 6 17 16 18 109 14 72 -3 112 -9 135 -22z m-378 4 c0 -19 -70 -200
-116 -298 -57 -123 -176 -322 -260 -435 l-65 -89 -27 18 c-46 30 -177 141
-215 184 -41 45 -44 56 -22 88 60 85 132 238 180 382 l32 95 115 12 c64 7 172
22 240 32 67 10 126 19 131 20 4 0 7 -4 7 -9z m-2824 -201 c81 -123 176 -241
290 -359 l93 -95 -18 -52 c-22 -65 -61 -124 -103 -156 -156 -119 -492 13 -649
256 -88 135 -76 289 29 400 45 48 135 110 205 142 l51 24 20 -32 c10 -18 47
-75 82 -128z m2060 -509 c19 -21 81 -76 136 -122 l100 -82 -44 -38 c-141 -120
-308 -176 -453 -149 -58 10 -205 75 -205 89 0 4 30 23 67 42 95 49 207 135
288 222 39 42 71 76 73 77 1 0 18 -17 38 -39z"/>
</g>
</svg>
