<?xml version="1.0" standalone="no"?>
<!DOCTYPE svg PUBLIC "-//W3C//DTD SVG 20010904//EN"
 "http://www.w3.org/TR/2001/REC-SVG-20010904/DTD/svg10.dtd">
<svg version="1.0" xmlns="http://www.w3.org/2000/svg"
 width="512.000000pt" height="512.000000pt" viewBox="0 0 512.000000 512.000000"
 preserveAspectRatio="xMidYMid meet">
<metadata>
Created by potrace 1.16, written by Peter Selinger 2001-2019
</metadata>
<g transform="translate(0.000000,512.000000) scale(0.100000,-0.100000)"
fill="#000000" stroke="none">
<path d="M1440 4754 c-19 -3 -79 -14 -134 -25 -284 -59 -542 -201 -741 -410
-196 -205 -317 -433 -377 -712 -29 -137 -32 -418 -5 -547 44 -210 128 -410
243 -573 43 -61 319 -343 1079 -1105 964 -966 1022 -1022 1055 -1022 33 0 89
54 998 963 530 529 998 1000 1039 1047 177 200 290 431 339 695 28 146 25 403
-4 542 -122 570 -548 996 -1123 1125 -147 32 -425 33 -576 0 -204 -44 -394
-128 -548 -242 -44 -33 -90 -67 -102 -76 -21 -15 -25 -15 -45 0 -13 9 -59 43
-103 76 -153 113 -345 198 -543 241 -94 20 -364 34 -452 23z m350 -169 c136
-21 230 -49 348 -105 128 -61 222 -123 312 -206 104 -95 115 -95 224 4 354
322 886 411 1336 225 226 -93 436 -265 577 -473 82 -121 155 -299 190 -460 25
-118 25 -381 -1 -500 -40 -187 -121 -366 -232 -512 -34 -46 -157 -177 -273
-293 l-211 -210 0 331 c0 294 -2 339 -19 406 -64 248 -251 435 -499 499 -65
16 -111 19 -332 19 -307 0 -326 -4 -410 -89 -82 -83 -90 -115 -90 -370 0 -157
-3 -212 -14 -233 -8 -15 -59 -85 -114 -155 -116 -149 -125 -164 -116 -197 8
-34 30 -51 97 -76 73 -27 92 -56 101 -152 3 -39 16 -92 27 -117 42 -96 147
-171 242 -171 l47 0 0 -388 0 -387 -210 -210 -210 -210 -250 250 -249 249 -3
452 c-3 512 1 487 -84 500 l-44 6 0 58 0 57 114 6 c169 8 247 51 303 165 24
49 28 70 31 178 l4 121 58 67 c88 102 88 115 -6 217 l-54 59 0 211 0 212 36
40 c119 131 118 324 -1 456 -21 22 -67 55 -103 73 l-67 33 -405 0 c-453 0
-465 -1 -610 -73 -56 -27 -97 -58 -161 -122 -129 -127 -179 -244 -208 -485
-43 -354 -1 -617 124 -762 l35 -41 0 -193 0 -194 -191 190 c-105 105 -219 227
-253 273 -287 379 -335 901 -123 1327 249 503 788 785 1337 700z m425 -786
c81 -23 146 -124 130 -202 -11 -50 -51 -105 -95 -127 -35 -18 -58 -20 -217
-20 -98 0 -207 -5 -243 -11 -187 -30 -308 -156 -333 -347 l-11 -78 -52 -1
c-119 -3 -214 -101 -214 -220 0 -18 10 -62 21 -97 24 -72 20 -111 -12 -121
-28 -9 -65 17 -100 73 -88 139 -109 413 -54 725 38 217 187 376 395 421 83 18
723 22 785 5z m5 -691 c1 -201 7 -231 59 -296 17 -22 31 -44 31 -49 0 -5 -12
-20 -26 -34 -49 -45 -64 -93 -64 -214 0 -122 -13 -162 -63 -199 -26 -19 -42
-21 -205 -21 -211 0 -247 10 -332 90 -89 85 -115 92 -161 46 -42 -43 -38 -72
19 -133 63 -68 146 -121 226 -144 l66 -19 0 -68 0 -67 -292 2 -293 3 -3 202
-2 203 44 11 c87 22 157 108 159 195 0 24 -11 75 -24 114 -26 76 -22 95 20
116 35 18 57 6 96 -48 34 -47 38 -49 77 -46 31 2 46 10 61 30 19 25 19 31 7
102 -29 172 7 310 96 362 60 35 106 42 317 43 l187 1 0 -182z m1285 28 c175
-46 311 -175 370 -349 l25 -76 0 -408 0 -408 -160 -160 -160 -160 0 370 c0
394 -3 423 -51 521 -34 69 -128 166 -196 202 -32 16 -87 38 -123 47 -35 9 -78
24 -95 32 -50 26 -209 163 -227 196 -35 63 -14 147 47 187 28 18 48 20 275 20
172 0 260 -4 295 -14z m-522 -494 c42 -31 120 -66 182 -81 117 -29 209 -111
240 -213 10 -35 15 -95 15 -185 l0 -134 -73 -34 c-96 -45 -222 -76 -334 -82
-81 -5 -95 -3 -125 15 -44 27 -57 57 -68 153 -11 94 -35 144 -95 197 -25 22
-45 42 -45 46 0 4 32 47 70 96 84 106 111 162 118 247 l5 63 39 -33 c22 -17
54 -43 71 -55z m297 -1367 l-140 -140 0 316 0 317 63 12 c34 6 96 24 137 39
l75 28 3 -216 2 -216 -140 -140z m-1380 255 c0 -170 -1 -310 -3 -310 -1 0
-142 140 -312 310 l-310 310 313 0 312 0 0 -310z"/>
</g>
</svg>
