<?xml version="1.0" standalone="no"?>
<!DOCTYPE svg PUBLIC "-//W3C//DTD SVG 20010904//EN"
 "http://www.w3.org/TR/2001/REC-SVG-20010904/DTD/svg10.dtd">
<svg version="1.0" xmlns="http://www.w3.org/2000/svg"
 width="512.000000pt" height="512.000000pt" viewBox="0 0 512.000000 512.000000"
 preserveAspectRatio="xMidYMid meet">
<metadata>
Created by potrace 1.16, written by Peter Selinger 2001-2019
</metadata>
<g transform="translate(0.000000,512.000000) scale(0.100000,-0.100000)"
fill="#000000" stroke="none">
<path d="M2620 4780 c-572 -78 -1054 -443 -1280 -967 -70 -163 -90 -250 -90
-394 0 -69 -5 -141 -12 -160 -6 -19 -125 -212 -265 -430 -223 -350 -253 -401
-253 -437 0 -24 7 -49 19 -63 10 -12 94 -61 187 -108 l169 -86 5 -435 c6 -491
5 -487 83 -538 l40 -27 363 -3 363 -3 3 -369 3 -370 28 -27 27 -28 943 -3
c518 -1 956 0 973 3 17 3 43 16 58 30 38 36 34 76 -23 202 -119 265 -170 441
-178 614 -5 105 -3 125 21 209 34 119 85 225 186 385 210 331 274 454 328 625
60 190 82 343 82 580 0 257 -26 454 -86 664 -155 540 -488 901 -979 1061 -60
20 -161 45 -225 56 -130 23 -387 33 -490 19z m397 -141 c677 -92 1123 -572
1228 -1321 22 -158 29 -377 16 -513 -31 -323 -108 -524 -332 -875 -179 -278
-236 -398 -271 -570 -41 -197 6 -447 147 -776 25 -58 45 -108 45 -110 0 -2
-396 -4 -880 -4 l-879 0 -3 380 c-3 349 -4 381 -21 397 -16 17 -47 18 -406 18
-314 0 -391 3 -404 14 -15 12 -17 56 -17 450 -1 323 -4 442 -13 458 -20 35
-63 64 -218 143 l-146 75 235 365 c129 201 244 385 255 410 18 37 22 72 28
205 5 145 9 169 38 255 75 221 186 405 344 566 224 231 484 370 802 429 87 16
347 19 452 4z"/>
<path d="M2219 4197 c-156 -44 -287 -205 -340 -416 -17 -68 -20 -105 -17 -195
6 -143 30 -209 103 -282 80 -80 185 -103 320 -69 88 22 252 107 329 171 37 31
69 54 71 52 1 -1 8 -73 14 -158 7 -85 14 -173 17 -195 5 -40 5 -41 -72 -105
-42 -36 -130 -121 -195 -189 l-118 -124 -43 35 c-24 20 -113 95 -198 167 -85
72 -171 139 -190 149 -23 11 -58 17 -101 17 -55 0 -72 -4 -107 -28 -85 -56
-131 -154 -152 -324 -25 -200 32 -368 143 -424 36 -19 54 -21 151 -17 174 7
323 67 451 181 29 26 56 47 60 47 3 0 66 -50 138 -111 73 -62 157 -128 187
-147 147 -96 305 -121 413 -68 74 36 150 119 194 211 28 60 39 75 52 69 9 -4
66 -9 127 -12 175 -7 280 32 396 148 79 79 120 157 139 262 23 129 -20 277
-111 381 -54 61 -178 143 -246 163 -43 12 -54 19 -50 32 3 9 19 67 37 127 44
150 50 275 19 359 -56 148 -201 209 -371 156 -92 -29 -145 -63 -318 -204 -85
-70 -158 -123 -161 -119 -4 5 -14 37 -24 73 -23 84 -90 214 -134 256 -114 111
-289 166 -413 131z m219 -162 c82 -41 124 -85 163 -170 29 -61 73 -217 67
-235 -9 -26 -213 -175 -293 -215 -183 -89 -296 -78 -353 37 -68 136 -18 392
103 526 91 101 188 119 313 57z m1024 -111 c76 -39 83 -163 21 -374 l-40 -135
-71 -7 c-125 -13 -262 -71 -437 -186 -43 -29 -82 -52 -86 -52 -5 0 -9 19 -10
43 0 23 -6 113 -12 200 l-12 158 187 152 c103 84 209 165 237 180 82 46 159
54 223 21z m-62 -651 c0 -10 -181 -647 -185 -651 -2 -2 -36 13 -75 34 -124 65
-215 176 -256 312 l-13 42 52 39 c134 101 289 184 391 211 82 22 86 22 86 13z
m249 -41 c70 -34 150 -113 181 -177 35 -72 39 -180 10 -258 -45 -121 -171
-218 -302 -233 -60 -7 -154 1 -177 16 -12 7 1 63 74 317 48 169 92 323 97 341
8 28 12 31 36 26 15 -3 52 -18 81 -32z m-1783 -335 c17 -12 108 -87 202 -167
193 -163 186 -146 91 -216 -102 -75 -247 -124 -365 -124 -62 0 -98 37 -115
118 -24 119 12 342 63 389 42 38 69 38 124 0z m967 -145 c63 -98 147 -170 273
-232 l73 -36 -23 -51 c-29 -62 -85 -126 -130 -147 -69 -33 -171 -12 -280 58
-66 42 -306 244 -306 257 0 5 70 80 156 166 l156 156 27 -64 c15 -35 40 -83
54 -107z"/>
</g>
</svg>
