<?xml version="1.0" standalone="no"?>
<!DOCTYPE svg PUBLIC "-//W3C//DTD SVG 20010904//EN"
 "http://www.w3.org/TR/2001/REC-SVG-20010904/DTD/svg10.dtd">
<svg version="1.0" xmlns="http://www.w3.org/2000/svg"
 width="512.000000pt" height="512.000000pt" viewBox="0 0 512.000000 512.000000"
 preserveAspectRatio="xMidYMid meet">
<metadata>
Created by potrace 1.16, written by Peter Selinger 2001-2019
</metadata>
<g transform="translate(0.000000,512.000000) scale(0.100000,-0.100000)"
fill="#000000" stroke="none">
<path d="M1827 4989 c-106 -25 -226 -121 -276 -221 -17 -32 -36 -93 -42 -134
-8 -48 -17 -73 -24 -70 -40 15 -127 16 -193 2 -191 -40 -344 -198 -383 -394
-22 -114 6 -250 69 -338 16 -22 31 -44 35 -50 4 -6 -17 -27 -49 -49 -111 -77
-201 -199 -250 -340 -26 -73 -28 -93 -28 -220 -1 -131 1 -145 31 -228 43 -122
86 -190 178 -282 123 -124 254 -182 447 -200 l77 -7 7 -56 c9 -75 36 -161 67
-214 34 -59 122 -140 187 -173 232 -117 533 -27 644 194 48 93 58 152 63 373
l6 208 26 -8 c34 -9 248 -9 282 0 l27 8 5 -213 c7 -280 28 -352 136 -469 178
-194 514 -193 694 2 78 84 115 168 132 301 l6 46 98 11 c121 14 207 41 290 89
314 184 440 594 282 918 -49 101 -117 184 -203 249 -63 48 -66 52 -53 71 103
144 128 295 75 450 -40 115 -135 227 -240 280 -93 47 -244 66 -314 39 -8 -3
-16 22 -24 67 -40 234 -225 381 -461 366 -193 -11 -334 -119 -393 -297 -20
-60 -22 -90 -26 -398 l-4 -332 -51 7 c-66 10 -168 10 -233 0 l-52 -7 -4 332
c-4 307 -6 338 -26 399 -60 183 -225 301 -421 298 -42 -1 -93 -5 -114 -10z
m262 -134 c89 -49 155 -145 180 -263 12 -57 13 -244 2 -407 -3 -55 -4 -137 -1
-183 l5 -83 -50 -33 c-63 -41 -135 -113 -177 -174 -17 -26 -33 -49 -34 -51 -2
-2 -33 11 -69 28 -49 22 -87 51 -141 107 -54 55 -80 75 -95 72 -60 -9 -49 -85
23 -163 56 -62 120 -99 198 -116 39 -8 50 -15 46 -26 -4 -8 -11 -46 -17 -83
-37 -223 78 -488 268 -616 l42 -29 6 -192 c8 -263 -11 -347 -98 -449 -75 -87
-229 -137 -344 -114 -154 32 -259 137 -294 297 -10 43 -10 68 -1 110 19 92 48
140 118 195 67 52 86 87 63 114 -19 24 -78 12 -134 -26 -47 -32 -95 -89 -122
-147 -9 -17 -26 -36 -39 -42 -33 -15 -169 4 -250 34 -342 129 -486 541 -301
858 56 96 191 217 240 217 11 0 55 -12 96 -26 98 -34 208 -39 240 -10 52 47
11 82 -110 96 -163 19 -270 99 -311 233 -52 173 36 369 200 445 42 19 78 27
141 30 108 6 136 -8 195 -98 66 -100 150 -160 224 -160 81 0 80 49 -2 98 -65
38 -101 79 -133 149 -61 133 -27 296 80 377 96 73 253 87 356 31z m1235 5
c111 -53 179 -162 179 -285 0 -119 -50 -202 -162 -264 -62 -35 -77 -55 -65
-85 16 -42 81 -41 144 0 62 40 81 60 134 129 69 92 99 107 202 103 63 -3 94
-10 138 -32 73 -36 146 -109 183 -183 24 -49 28 -70 28 -138 0 -69 -4 -89 -31
-145 -61 -130 -172 -207 -314 -219 -98 -8 -124 -26 -100 -68 29 -51 116 -54
249 -8 93 31 109 31 157 -1 102 -68 194 -192 234 -315 35 -104 35 -274 1 -369
-74 -209 -264 -364 -488 -400 -103 -17 -126 -9 -161 53 -51 89 -155 177 -208
177 -23 0 -54 -29 -54 -50 0 -18 38 -57 83 -85 76 -48 130 -193 109 -292 -35
-166 -139 -272 -300 -303 -151 -30 -317 50 -390 187 -45 86 -54 157 -48 377
l6 191 63 46 c104 76 176 178 223 314 23 68 27 97 28 190 0 61 -5 128 -12 150
-12 42 -5 55 30 55 45 0 132 45 188 97 66 61 88 110 70 157 -16 44 -46 33
-124 -49 -54 -55 -89 -82 -140 -106 -37 -17 -68 -30 -70 -28 -1 2 -17 25 -34
51 -42 62 -114 133 -179 176 l-53 35 0 276 c0 337 9 424 50 508 36 72 110 144
173 167 64 24 199 17 261 -14z m-659 -995 c95 -24 183 -74 249 -141 101 -100
146 -210 146 -349 -1 -137 -39 -232 -138 -336 -200 -212 -514 -219 -716 -16
-198 199 -194 526 10 716 128 120 292 166 449 126z"/>
<path d="M1294 3336 c-13 -22 -14 -33 -4 -83 22 -104 91 -209 163 -248 33 -18
36 -18 61 -2 40 27 34 61 -20 110 -53 48 -91 116 -100 179 -3 24 -13 49 -22
56 -25 20 -60 14 -78 -12z"/>
<path d="M3742 3348 c-5 -7 -13 -33 -17 -58 -11 -67 -49 -134 -100 -176 -51
-43 -59 -78 -25 -109 19 -17 21 -17 60 0 78 35 147 138 171 253 9 45 8 57 -5
78 -18 26 -66 33 -84 12z"/>
<path d="M2658 3443 l-187 -187 -99 97 c-55 53 -107 97 -116 97 -23 0 -56 -36
-56 -61 0 -37 238 -269 276 -269 17 0 444 436 444 452 0 23 -35 58 -58 58 -9
0 -101 -84 -204 -187z"/>
<path d="M4905 3153 c-11 -2 -30 -6 -42 -8 -32 -7 -84 -54 -99 -90 -7 -18 -49
-247 -93 -509 -49 -289 -88 -494 -100 -519 -10 -23 -36 -59 -57 -79 -62 -58
-589 -467 -592 -459 -1 5 20 71 47 149 47 133 54 146 124 230 87 105 112 161
112 252 0 134 -57 211 -163 217 -44 3 -64 0 -88 -16 -61 -38 -277 -312 -445
-566 -207 -310 -252 -393 -279 -510 -30 -126 -102 -564 -140 -848 -31 -228
-32 -239 -15 -257 17 -19 34 -20 470 -20 408 0 454 2 466 16 10 12 16 64 19
183 5 149 8 171 30 218 16 32 212 280 515 649 270 328 499 610 510 627 19 31
20 51 23 600 2 376 -1 581 -8 607 -23 86 -115 148 -195 133z m84 -149 c16 -37
15 -1111 -2 -1140 -7 -11 -235 -291 -507 -623 -272 -331 -503 -617 -513 -636
-29 -58 -47 -155 -47 -267 l0 -108 -370 0 -371 0 5 33 c3 17 20 131 36 252 37
262 92 590 120 711 16 69 34 109 85 193 209 345 538 792 594 807 33 9 54 -6
70 -52 23 -65 8 -124 -50 -197 -127 -161 -122 -150 -207 -402 -45 -132 -82
-250 -82 -262 0 -30 44 -59 70 -47 38 18 770 596 800 632 61 75 69 106 156
615 46 269 89 496 96 504 32 39 96 31 117 -13z"/>
<path d="M105 3131 c-45 -28 -72 -62 -84 -106 -7 -27 -11 -226 -11 -600 1
-509 2 -563 18 -597 9 -20 241 -310 516 -644 287 -350 507 -627 519 -653 18
-38 22 -73 26 -212 4 -119 10 -171 20 -183 12 -14 58 -16 467 -16 l454 0 14
23 c14 20 12 48 -20 277 -59 430 -120 782 -159 915 -24 83 -397 643 -549 824
-70 83 -141 158 -158 167 -21 11 -48 15 -83 12 -105 -9 -160 -84 -160 -218 0
-96 21 -141 116 -258 67 -82 75 -99 120 -228 27 -76 48 -142 46 -146 -3 -9
-592 453 -617 485 -11 14 -27 41 -35 60 -8 19 -50 247 -95 508 -44 261 -83
483 -86 494 -11 36 -56 87 -90 101 -48 20 -133 18 -169 -5z m129 -103 c24 -22
30 -50 106 -499 44 -262 87 -496 95 -520 31 -89 78 -134 465 -437 206 -161
385 -298 397 -304 27 -13 73 12 73 40 0 16 -112 363 -152 470 -12 33 -50 90
-99 149 -85 103 -104 147 -96 221 5 50 30 82 63 82 26 0 35 -9 176 -177 117
-139 463 -663 494 -749 36 -99 71 -281 129 -686 30 -209 55 -382 55 -384 0 -2
-166 -4 -370 -4 l-370 0 0 108 c0 114 -18 209 -49 270 -11 20 -234 298 -497
617 -262 319 -490 598 -505 619 l-29 39 0 548 c0 335 4 558 10 574 9 24 38 43
67 44 7 1 23 -9 37 -21z"/>
</g>
</svg>
