<?xml version="1.0" standalone="no"?>
<!DOCTYPE svg PUBLIC "-//W3C//DTD SVG 20010904//EN"
 "http://www.w3.org/TR/2001/REC-SVG-20010904/DTD/svg10.dtd">
<svg version="1.0" xmlns="http://www.w3.org/2000/svg"
 width="512.000000pt" height="512.000000pt" viewBox="0 0 512.000000 512.000000"
 preserveAspectRatio="xMidYMid meet">
<metadata>
Created by potrace 1.16, written by Peter Selinger 2001-2019
</metadata>
<g transform="translate(0.000000,512.000000) scale(0.100000,-0.100000)"
fill="#000000" stroke="none">
<path d="M2445 3856 c-246 -48 -452 -207 -555 -429 -133 -283 -76 -627 142
-852 43 -44 78 -81 78 -82 0 -2 -97 -3 -215 -3 -197 0 -220 -2 -273 -22 -35
-13 -88 -23 -136 -26 l-79 -4 55 62 c63 68 120 175 143 265 19 72 21 231 5
300 -7 28 -30 88 -53 135 -74 157 -237 291 -407 335 -83 22 -225 23 -310 1
-207 -52 -385 -217 -451 -417 -33 -103 -34 -281 -2 -384 25 -80 79 -173 141
-245 l43 -50 -163 0 c-159 0 -164 -1 -223 -29 -72 -34 -126 -88 -157 -156 -22
-49 -23 -59 -26 -411 -3 -354 -3 -361 18 -387 l21 -27 663 0 664 0 4 -56 c3
-39 11 -62 27 -77 20 -21 34 -22 229 -29 114 -4 221 -7 237 -7 17 0 439 4 938
7 l909 7 19 24 c10 13 19 38 19 57 l0 34 660 0 661 0 24 25 25 24 0 349 c0
392 -3 410 -69 498 -26 35 -56 59 -105 84 -68 35 -70 35 -218 39 l-150 3 40
42 c58 59 108 143 139 233 23 67 27 94 28 193 0 130 -11 179 -64 290 -27 58
-55 94 -121 160 -121 122 -240 176 -410 187 -287 18 -551 -168 -640 -452 -33
-105 -32 -262 4 -371 27 -85 79 -175 141 -243 l37 -41 -53 0 c-43 0 -70 8
-128 37 l-74 38 -214 3 -215 3 80 83 c87 91 139 175 177 287 142 417 -107 874
-535 983 -91 23 -240 29 -325 12z m316 -175 c195 -61 363 -241 410 -441 16
-67 15 -207 0 -275 -18 -75 -76 -187 -130 -253 -174 -209 -491 -273 -730 -147
-213 112 -331 305 -331 540 0 106 16 173 65 273 80 161 251 289 430 322 72 13
211 4 286 -19z m-1646 -303 c280 -70 428 -397 301 -662 -42 -87 -134 -180
-219 -220 -184 -87 -394 -50 -538 93 -120 120 -166 292 -124 456 22 82 64 152
134 219 121 115 280 156 446 114z m3195 -44 c123 -41 244 -157 290 -281 84
-225 -18 -482 -234 -588 -187 -93 -394 -59 -542 89 -258 258 -140 691 217 791
68 19 193 14 269 -11z m-829 -1027 c24 -13 58 -43 74 -66 l30 -43 3 -384 3
-385 -133 3 -133 3 -5 263 c-5 246 -6 265 -24 278 -23 16 -69 18 -96 4 -34
-18 -40 -65 -40 -312 l0 -238 -607 2 -608 3 -5 250 c-3 138 -8 255 -12 262
-15 22 -63 31 -96 18 -45 -20 -52 -58 -52 -312 l0 -223 -126 0 -125 0 3 373
c3 363 4 373 25 414 23 43 69 84 113 102 16 6 349 10 896 10 l871 1 44 -23z
m-2088 -69 c-14 -36 -17 -96 -21 -345 l-4 -303 -604 0 -604 0 0 287 c0 286 0
286 25 328 45 77 19 75 657 75 l567 0 -16 -42z m3477 -10 c86 -44 85 -39 88
-379 l3 -299 -606 0 -605 0 0 318 c0 174 -4 332 -9 350 l-10 32 548 0 547 0
44 -22z"/>
</g>
</svg>
