<?xml version="1.0" standalone="no"?>
<!DOCTYPE svg PUBLIC "-//W3C//DTD SVG 20010904//EN"
 "http://www.w3.org/TR/2001/REC-SVG-20010904/DTD/svg10.dtd">
<svg version="1.0" xmlns="http://www.w3.org/2000/svg"
 width="512.000000pt" height="512.000000pt" viewBox="0 0 512.000000 512.000000"
 preserveAspectRatio="xMidYMid meet">
<metadata>
Created by potrace 1.16, written by Peter Selinger 2001-2019
</metadata>
<g transform="translate(0.000000,512.000000) scale(0.100000,-0.100000)"
fill="#000000" stroke="none">
<path d="M2088 4764 c-256 -62 -419 -307 -381 -572 27 -183 111 -342 273 -515
124 -133 373 -320 523 -393 l57 -28 56 27 c85 42 238 145 350 235 391 314 541
681 400 977 -136 287 -516 373 -767 174 l-39 -31 -39 31 c-119 94 -286 131
-433 95z m280 -144 c43 -20 84 -49 115 -82 36 -39 55 -51 77 -51 22 0 41 12
77 51 163 173 448 156 587 -36 163 -223 51 -558 -282 -847 -85 -74 -239 -184
-335 -240 l-48 -27 -80 48 c-227 137 -449 339 -547 497 -97 156 -131 307 -98
437 60 235 313 353 534 250z"/>
<path d="M40 3550 c-20 -20 -20 -33 -20 -702 0 -599 2 -683 15 -698 9 -10 207
-107 441 -216 234 -109 430 -206 434 -215 6 -11 2 -35 -11 -70 -25 -65 -22
-145 9 -206 38 -73 138 -143 205 -143 14 0 16 -8 11 -43 -13 -96 50 -213 140
-259 24 -13 68 -23 109 -26 l67 -5 0 -40 c0 -62 20 -114 62 -162 51 -58 113
-87 187 -88 l59 0 5 -57 c8 -93 62 -173 146 -215 49 -25 137 -30 190 -12 42
15 46 15 72 -4 116 -82 278 -55 361 61 l28 38 46 -24 c33 -17 64 -24 102 -24
88 0 131 18 195 81 l57 58 48 -22 c59 -26 141 -28 204 -4 77 30 158 133 158
201 0 24 2 25 69 25 115 -1 206 61 246 165 14 36 17 63 12 121 -3 41 -2 75 3
75 5 0 49 27 99 61 165 110 309 277 396 460 l36 76 415 193 c229 107 427 202
440 213 l24 18 0 685 c0 671 0 684 -20 704 -11 11 -28 20 -37 20 -10 -1 -324
-144 -698 -318 l-680 -318 -74 29 c-133 52 -240 70 -401 70 -203 0 -301 -23
-512 -119 l-118 -53 -96 44 c-217 101 -336 129 -539 129 -158 -1 -250 -17
-385 -68 l-85 -31 -680 317 c-374 175 -688 318 -697 318 -10 0 -27 -9 -38 -20z
m754 -440 c353 -165 651 -300 662 -300 11 0 51 13 91 30 223 94 498 101 723
17 131 -48 866 -398 888 -423 65 -74 -28 -203 -148 -204 -37 0 -96 24 -325
131 -190 88 -287 128 -301 125 -13 -4 -34 -28 -52 -58 -124 -218 -373 -313
-605 -233 -73 25 -80 26 -103 11 -18 -12 -24 -25 -24 -51 0 -28 5 -37 31 -51
l31 -16 -323 -151 c-314 -147 -323 -150 -336 -130 -8 12 -181 98 -438 218
l-425 198 0 593 c0 327 2 594 5 594 3 0 295 -135 649 -300z m4186 -294 l0
-593 -426 -199 -426 -198 -43 -94 c-57 -121 -119 -213 -199 -295 -68 -69 -166
-147 -227 -177 l-35 -19 -54 117 c-80 171 -141 221 -271 222 -107 0 -195 -56
-238 -151 -15 -33 -19 -35 -41 -27 -39 15 -141 12 -181 -5 -52 -21 -112 -79
-134 -127 -18 -41 -19 -41 -59 -33 -104 20 -193 -4 -259 -72 -20 -21 -42 -53
-49 -72 -12 -33 -14 -34 -48 -26 -19 4 -60 8 -90 7 -91 -1 -187 -63 -224 -143
-8 -18 -42 -39 -116 -74 -132 -63 -155 -69 -200 -57 -105 28 -139 165 -58 233
18 16 139 77 268 137 129 61 243 117 252 125 38 32 12 95 -38 95 -14 0 -171
-67 -348 -150 -177 -82 -334 -150 -349 -150 -120 0 -188 137 -113 227 16 19
122 74 346 178 346 161 367 175 339 223 -30 52 -34 51 -410 -125 -388 -181
-421 -192 -482 -154 -85 52 -87 183 -5 234 13 8 194 94 403 190 346 160 386
176 450 182 146 12 266 56 362 134 47 36 119 117 141 157 6 11 60 -10 257
-103 l250 -118 85 0 c69 0 93 5 127 23 169 90 216 282 96 395 -16 15 -139 79
-272 141 -134 63 -245 116 -247 119 -9 9 145 70 233 93 209 53 429 38 617 -43
34 -14 75 -27 91 -29 23 -4 171 62 670 295 352 165 643 300 648 300 4 1 7
-266 7 -593z m-1608 -1373 c24 -14 47 -53 111 -183 52 -108 81 -181 85 -211 8
-87 -49 -149 -141 -149 -74 0 -102 33 -192 228 -79 172 -87 209 -60 263 33 64
132 89 197 52z m-401 -153 c19 -5 47 -22 61 -37 15 -16 67 -116 117 -223 106
-228 113 -264 60 -325 -57 -64 -144 -68 -201 -7 -15 15 -68 116 -118 225 -86
184 -92 202 -88 248 7 69 53 115 128 128 3 1 21 -4 41 -9z m-329 -181 c9 -5
28 -24 41 -42 33 -45 167 -338 167 -365 0 -71 -57 -133 -129 -140 -75 -7 -112
20 -157 116 -134 280 -138 291 -124 343 23 86 123 129 202 88z m-352 -176 c15
-11 52 -72 90 -148 57 -115 64 -137 65 -188 0 -55 -2 -61 -37 -92 -20 -19 -49
-37 -63 -41 -40 -10 -93 5 -125 34 -33 31 -150 277 -150 317 0 60 48 123 105
138 32 9 87 -1 115 -20z m-282 -293 c30 -65 51 -124 47 -129 -10 -18 -78 -12
-113 9 -61 37 -89 118 -61 173 16 31 50 67 63 67 6 -1 35 -54 64 -120z"/>
</g>
</svg>
