<?xml version="1.0" standalone="no"?>
<!DOCTYPE svg PUBLIC "-//W3C//DTD SVG 20010904//EN"
 "http://www.w3.org/TR/2001/REC-SVG-20010904/DTD/svg10.dtd">
<svg version="1.0" xmlns="http://www.w3.org/2000/svg"
 width="512.000000pt" height="512.000000pt" viewBox="0 0 512.000000 512.000000"
 preserveAspectRatio="xMidYMid meet">
<metadata>
Created by potrace 1.16, written by Peter Selinger 2001-2019
</metadata>
<g transform="translate(0.000000,512.000000) scale(0.100000,-0.100000)"
fill="#000000" stroke="none">
<path d="M2503 4918 c-158 -155 -271 -324 -333 -498 -13 -36 -24 -66 -26 -68
-1 -2 -37 8 -81 21 -127 40 -251 57 -420 57 -211 0 -209 3 -200 -244 6 -171
24 -278 68 -404 143 -407 481 -701 914 -798 113 -25 369 -30 499 -9 513 80
906 450 1021 960 10 42 18 144 22 257 l6 186 -28 27 -27 28 -191 -6 c-240 -7
-345 -30 -523 -112 l-71 -32 -22 76 c-29 97 -97 242 -158 334 -26 40 -101 127
-167 195 -155 159 -151 159 -283 30z m278 -262 c134 -167 208 -373 217 -604 7
-189 -26 -359 -95 -496 l-25 -49 -29 88 c-39 115 -109 250 -179 344 -74 98
-205 223 -302 287 l-76 50 24 73 c51 150 124 270 243 394 l76 79 54 -58 c29
-33 71 -81 92 -108z m-861 -410 c490 -117 830 -538 830 -1029 l0 -100 -112 6
c-199 10 -345 52 -506 144 -261 151 -443 405 -507 706 -8 38 -18 120 -22 184
l-6 116 129 -6 c71 -3 158 -12 194 -21z m1890 -60 c0 -279 -114 -553 -314
-752 -91 -90 -168 -146 -285 -204 -80 -40 -234 -90 -277 -90 -23 0 -24 3 -24
59 0 53 4 65 46 127 133 198 193 387 203 638 l6 150 70 37 c136 74 309 117
478 118 l97 1 0 -84z"/>
<path d="M1394 2903 c-50 -10 -75 -69 -105 -248 -7 -40 -11 -154 -11 -265 1
-144 -2 -208 -13 -245 -18 -64 -96 -190 -175 -283 -91 -108 -118 -184 -90
-256 13 -36 76 -103 121 -128 21 -11 41 -28 44 -35 3 -8 -2 -45 -11 -81 -20
-89 -12 -124 40 -176 l42 -43 -23 -29 c-56 -70 -51 -153 14 -224 40 -45 52
-87 53 -180 0 -110 52 -183 149 -210 54 -15 198 -12 292 6 106 20 231 23 289
6 125 -37 203 -144 244 -335 4 -15 15 -36 26 -47 20 -20 37 -20 823 -20 l804
0 21 23 c30 32 28 76 -8 147 -159 315 -254 751 -221 1009 14 105 47 175 141
296 259 335 354 811 242 1225 -29 110 112 100 -1377 99 -710 -1 -1300 -4
-1311 -6z m2557 -240 c20 -113 17 -357 -5 -463 -42 -197 -123 -373 -248 -537
-142 -188 -162 -250 -162 -498 1 -250 44 -466 145 -729 27 -72 53 -139 56
-149 5 -16 -29 -17 -666 -15 l-672 3 -23 67 c-57 164 -158 268 -307 318 -80
28 -233 30 -363 6 -106 -19 -226 -21 -248 -4 -11 9 -17 38 -21 99 -7 98 -33
179 -73 220 -27 28 -27 29 -8 50 10 12 43 37 71 56 58 37 72 67 53 112 -11 28
-46 51 -76 51 -8 0 -33 9 -55 20 l-40 21 8 52 c22 143 0 200 -99 263 -42 27
-68 51 -68 61 0 10 25 47 56 83 78 92 161 218 197 303 l32 72 2 225 c2 197 11
312 29 373 5 16 73 17 1238 17 l1233 0 14 -77z"/>
</g>
</svg>
