<?xml version="1.0" standalone="no"?>
<!DOCTYPE svg PUBLIC "-//W3C//DTD SVG 20010904//EN"
 "http://www.w3.org/TR/2001/REC-SVG-20010904/DTD/svg10.dtd">
<svg version="1.0" xmlns="http://www.w3.org/2000/svg"
 width="512.000000pt" height="512.000000pt" viewBox="0 0 512.000000 512.000000"
 preserveAspectRatio="xMidYMid meet">
<metadata>
Created by potrace 1.16, written by Peter Selinger 2001-2019
</metadata>
<g transform="translate(0.000000,512.000000) scale(0.100000,-0.100000)"
fill="#000000" stroke="none">
<path d="M1654 3869 c-140 -23 -334 -106 -454 -194 -327 -241 -490 -573 -451
-922 32 -284 179 -583 427 -867 63 -73 70 -85 62 -106 -25 -66 -38 -182 -38
-336 0 -151 2 -166 20 -184 12 -12 33 -20 54 -20 58 0 66 22 66 185 0 154 11
239 40 324 11 30 20 65 20 78 0 14 -27 52 -71 100 -198 218 -339 451 -405 668
-25 82 -28 105 -28 250 -1 130 3 171 18 220 43 138 147 300 258 402 277 253
622 332 986 227 98 -29 237 -92 281 -129 59 -50 59 -140 0 -189 -44 -38 -92
-34 -186 13 -243 121 -489 133 -701 35 -273 -125 -442 -379 -417 -622 24 -231
179 -509 411 -739 74 -73 109 -100 176 -132 163 -81 326 -80 488 1 47 24 88
44 91 46 9 4 94 -109 122 -163 51 -101 59 -148 64 -353 5 -191 6 -193 31 -212
33 -27 58 -25 87 5 24 24 25 28 25 182 0 100 6 184 15 228 18 84 81 214 132
273 l38 42 90 -45 c165 -84 328 -86 490 -6 65 32 101 60 185 143 216 212 357
455 396 679 22 132 4 243 -59 364 -39 74 -180 217 -259 264 -247 144 -519 148
-790 10 -114 -57 -187 -48 -223 27 -43 91 8 153 188 232 250 108 547 120 775
32 295 -114 538 -375 603 -646 29 -124 23 -309 -15 -437 -64 -216 -206 -451
-405 -670 -44 -48 -71 -86 -71 -100 0 -13 9 -48 20 -78 29 -85 40 -170 40
-330 0 -129 2 -148 18 -162 25 -23 78 -21 102 3 18 18 20 33 20 184 0 154 -13
270 -38 336 -8 21 -1 33 62 106 309 354 465 744 427 1067 -27 233 -127 424
-313 603 -149 143 -305 235 -493 290 -120 35 -352 45 -492 20 -177 -31 -414
-125 -485 -193 l-28 -27 -27 27 c-69 65 -299 158 -472 191 -90 17 -318 20
-407 5z m384 -549 c40 -11 113 -40 161 -65 137 -68 212 -70 314 -5 l47 30 46
-29 c58 -37 131 -55 186 -46 24 4 82 27 130 51 131 66 221 88 353 88 87 0 123
-5 172 -22 150 -53 292 -172 354 -297 29 -59 34 -82 37 -155 3 -57 -2 -106
-13 -150 -17 -65 -80 -208 -107 -244 -14 -17 -15 -15 -21 35 -17 165 -140 334
-301 412 -175 86 -395 70 -553 -39 -177 -122 -272 -347 -234 -550 13 -70 47
-155 80 -205 l29 -42 -53 -64 c-29 -36 -64 -84 -76 -109 -13 -24 -26 -44 -29
-44 -3 0 -16 20 -29 44 -12 25 -47 73 -76 109 l-53 64 29 42 c139 208 107 504
-75 685 -176 176 -452 212 -666 88 -139 -80 -245 -236 -268 -398 l-8 -49 -28
48 c-111 188 -136 381 -67 522 70 141 244 272 411 310 82 19 210 12 308 -15z
m3 -460 c87 -16 190 -72 247 -135 161 -176 160 -433 -3 -604 -181 -190 -468
-187 -645 7 -93 100 -134 235 -112 364 25 144 111 262 235 323 104 51 179 63
278 45z m1190 0 c138 -25 262 -121 320 -244 80 -171 53 -353 -71 -488 -177
-193 -464 -197 -644 -8 -61 64 -90 114 -111 197 -57 218 66 446 280 521 93 33
142 38 226 22z"/>
<path d="M1720 2360 c-43 -43 -16 -83 88 -133 117 -55 253 -46 365 25 66 42
77 95 23 119 -22 10 -32 7 -74 -20 -97 -62 -219 -63 -312 -1 -53 35 -64 36
-90 10z"/>
<path d="M2912 2364 c-91 -63 101 -185 271 -171 108 9 237 78 237 127 0 22
-33 60 -52 60 -7 0 -26 -9 -43 -20 -105 -72 -223 -75 -326 -9 -53 34 -57 34
-87 13z"/>
</g>
</svg>
