<?xml version="1.0" standalone="no"?>
<!DOCTYPE svg PUBLIC "-//W3C//DTD SVG 20010904//EN"
 "http://www.w3.org/TR/2001/REC-SVG-20010904/DTD/svg10.dtd">
<svg version="1.0" xmlns="http://www.w3.org/2000/svg"
 width="512.000000pt" height="512.000000pt" viewBox="0 0 512.000000 512.000000"
 preserveAspectRatio="xMidYMid meet">
<metadata>
Created by potrace 1.16, written by Peter Selinger 2001-2019
</metadata>
<g transform="translate(0.000000,512.000000) scale(0.100000,-0.100000)"
fill="#000000" stroke="none">
<path d="M1790 4274 c-199 -24 -353 -69 -511 -151 -315 -162 -557 -446 -669
-781 -48 -145 -61 -225 -67 -422 l-6 -184 -125 -191 c-69 -104 -131 -204 -138
-222 -31 -72 -6 -174 53 -224 16 -13 72 -44 126 -69 53 -25 97 -49 97 -55 0
-5 18 -107 39 -226 44 -244 64 -297 143 -384 59 -65 114 -100 199 -126 51 -16
93 -19 270 -19 261 0 243 11 283 -180 33 -157 40 -174 73 -189 34 -16 1972
-16 2006 0 33 15 40 32 73 189 40 191 22 180 283 180 177 0 219 3 270 19 85
26 140 61 199 126 80 88 99 139 144 394 22 124 41 226 42 226 19 2 214 107
231 125 58 60 71 157 31 231 -12 24 -75 123 -138 220 l-115 175 -6 185 c-6
197 -19 275 -68 424 -146 439 -520 783 -974 894 -270 67 -611 49 -875 -45
l-100 -36 -100 36 c-160 57 -271 76 -465 80 -93 3 -186 2 -205 0z m340 -165
c80 -9 226 -42 236 -52 3 -3 -26 -26 -63 -53 -86 -61 -224 -198 -291 -289
-286 -388 -350 -907 -166 -1354 40 -97 58 -129 242 -432 207 -342 219 -404
147 -747 l-39 -182 -270 2 -271 3 -23 110 c-27 133 -57 187 -126 230 l-49 30
-241 5 -241 5 -53 29 c-57 32 -103 82 -127 139 -8 20 -33 138 -55 264 -22 125
-45 240 -51 255 -8 21 -34 38 -106 73 -52 25 -98 45 -102 45 -17 0 -61 42 -61
58 0 9 63 113 139 230 l138 212 6 203 c4 172 9 217 30 302 112 439 441 773
873 884 151 39 358 51 524 30z m1315 -14 c478 -100 826 -438 946 -920 16 -60
22 -130 27 -285 l7 -205 138 -211 c75 -116 137 -218 137 -227 0 -15 -44 -57
-61 -57 -4 0 -51 -21 -103 -46 -70 -34 -97 -53 -105 -73 -6 -14 -29 -129 -51
-254 -22 -126 -47 -244 -55 -264 -24 -57 -70 -107 -127 -139 l-53 -29 -235 -6
c-150 -3 -245 -10 -264 -17 -90 -38 -127 -96 -158 -247 l-23 -110 -271 -3
-271 -2 -39 187 c-70 336 -57 403 133 716 193 318 213 354 253 450 186 446
130 946 -151 1347 -62 89 -219 247 -306 310 -40 28 -58 47 -50 51 20 10 147
39 217 49 98 13 372 5 465 -15z m-714 -226 c87 -64 214 -197 276 -290 166
-246 239 -546 203 -836 -27 -214 -77 -336 -268 -653 -85 -140 -167 -281 -183
-312 -84 -167 -94 -330 -35 -603 20 -93 36 -171 36 -172 0 -2 -90 -3 -201 -3
l-201 0 7 28 c71 285 86 475 47 615 -29 102 -51 145 -234 447 -154 256 -203
357 -239 498 -74 290 -36 613 103 872 106 198 271 373 453 479 l67 39 51 -30
c29 -17 82 -52 118 -79z"/>
<path d="M828 2770 c-25 -26 -29 -36 -24 -63 13 -66 120 -120 241 -121 175 -2
301 94 240 181 -25 36 -66 38 -127 6 -71 -37 -142 -37 -215 0 -66 34 -78 34
-115 -3z"/>
<path d="M3863 2790 c-53 -22 -57 -89 -8 -135 49 -47 123 -70 222 -69 71 0 90
5 147 33 97 48 120 99 67 152 -36 36 -53 36 -116 2 -70 -37 -142 -37 -212 0
-56 29 -66 31 -100 17z"/>
</g>
</svg>
