<?xml version="1.0" standalone="no"?>
<!DOCTYPE svg PUBLIC "-//W3C//DTD SVG 20010904//EN"
 "http://www.w3.org/TR/2001/REC-SVG-20010904/DTD/svg10.dtd">
<svg version="1.0" xmlns="http://www.w3.org/2000/svg"
 width="512.000000pt" height="512.000000pt" viewBox="0 0 512.000000 512.000000"
 preserveAspectRatio="xMidYMid meet">
<metadata>
Created by potrace 1.16, written by Peter Selinger 2001-2019
</metadata>
<g transform="translate(0.000000,512.000000) scale(0.100000,-0.100000)"
fill="#000000" stroke="none">
<path d="M2258 4420 c-652 -63 -1210 -276 -1620 -619 -271 -227 -442 -487
-526 -801 -22 -84 -25 -114 -25 -270 -1 -240 31 -372 140 -582 291 -561 975
-969 1843 -1100 172 -25 610 -36 798 -19 246 23 512 73 705 135 l104 33 323
-259 c178 -142 333 -261 345 -264 32 -8 83 21 91 51 4 17 -25 150 -81 374 -48
192 -88 355 -88 364 -1 9 34 41 83 76 353 255 589 590 666 943 25 114 29 305
10 423 -125 757 -931 1354 -2026 1500 -143 19 -603 29 -742 15z m732 -174
c644 -89 1163 -323 1516 -683 160 -163 288 -380 341 -579 23 -87 26 -118 26
-259 0 -141 -3 -172 -26 -260 -34 -127 -126 -314 -208 -425 -86 -115 -233
-259 -358 -350 -57 -41 -122 -89 -144 -105 -27 -20 -43 -40 -45 -56 -2 -14 27
-144 63 -289 36 -144 64 -264 62 -266 -1 -2 -112 84 -246 191 -133 107 -250
197 -260 200 -9 3 -66 -11 -127 -31 -896 -292 -1961 -173 -2664 297 -456 304
-698 712 -677 1139 23 476 356 904 925 1189 335 168 669 258 1137 305 96 10
575 -3 685 -18z"/>
<path d="M2524 3879 c-71 -12 -173 -50 -241 -90 -81 -48 -202 -171 -252 -256
-41 -69 -44 -72 -64 -58 -12 8 -53 26 -92 41 -94 36 -210 39 -271 7 -93 -49
-193 -205 -235 -368 -16 -63 -20 -104 -17 -190 l3 -110 -38 -73 c-80 -151
-103 -275 -73 -391 23 -89 59 -150 131 -222 112 -113 241 -173 395 -186 61 -5
81 -11 110 -34 95 -75 242 -122 445 -141 462 -42 805 127 971 477 59 125 75
190 81 337 l6 127 36 24 c20 13 70 56 112 95 l75 70 26 -41 c135 -217 129
-383 -19 -538 -65 -69 -135 -121 -273 -204 -163 -97 -220 -168 -220 -270 0
-71 33 -137 104 -211 44 -46 58 -54 88 -54 28 0 42 7 57 26 29 37 26 64 -11
113 -93 121 -95 131 -45 178 17 17 81 61 142 98 213 130 322 235 388 372 35
74 40 94 45 177 7 149 -25 251 -134 417 -62 94 -63 97 -52 135 25 91 -15 216
-98 304 -99 106 -238 176 -372 187 l-77 6 -74 69 c-154 144 -362 210 -557 177z
m199 -164 c65 -14 155 -55 207 -95 l25 -19 -43 10 c-194 43 -456 22 -627 -51
-55 -24 -51 -10 14 45 85 70 218 122 316 124 22 0 70 -6 108 -14z m-3 -249 c0
-2 -16 -14 -36 -27 -30 -18 -49 -22 -117 -20 -97 2 -212 -18 -299 -53 -89 -36
-82 -25 11 17 72 33 184 69 251 80 34 6 190 8 190 3z m680 -63 c49 -37 100
-85 112 -107 5 -10 -20 7 -56 38 -36 30 -84 67 -106 82 -22 15 -40 28 -40 30
0 8 58 -20 90 -43z m-376 7 c16 -6 26 -17 26 -30 0 -26 -38 -102 -49 -98 -30
12 -141 74 -141 78 0 9 103 59 122 59 9 1 28 -3 42 -9z m-1219 -41 c36 -12 65
-25 65 -28 0 -4 -39 -34 -87 -68 -49 -34 -128 -98 -178 -142 -49 -43 -92 -78
-94 -76 -2 2 2 28 9 57 26 108 106 249 153 268 35 14 62 12 132 -11z m1533
-146 c43 -33 97 -81 121 -106 l43 -45 -48 -52 c-27 -29 -65 -65 -85 -81 l-37
-29 -37 65 c-21 35 -65 94 -99 131 l-62 67 36 72 35 73 28 -17 c16 -9 63 -44
105 -78z m-948 -28 l-55 -56 -22 28 c-13 15 -23 31 -23 34 0 7 116 47 140 48
8 1 -10 -24 -40 -54z m421 4 c38 -18 74 -38 79 -45 18 -20 -140 -142 -323
-251 l-91 -53 -29 76 -29 76 28 30 c16 17 74 71 129 120 115 103 114 103 236
47z m-940 -120 c-89 -110 -150 -255 -151 -356 0 -38 -7 -40 -58 -14 -39 20
-122 102 -122 121 0 19 201 213 290 279 102 77 118 65 41 -30z m318 -16 l33
-43 -37 -45 c-21 -25 -41 -45 -45 -45 -10 0 -36 66 -45 112 -6 31 -3 38 21 57
15 12 30 18 34 14 4 -4 21 -27 39 -50z m980 -186 c13 -26 21 -53 18 -60 -3 -6
-47 -34 -99 -61 l-94 -50 -55 24 c-44 20 -75 25 -172 28 l-119 4 77 49 c99 64
221 157 265 204 l35 36 61 -64 c33 -35 71 -85 83 -110z m-1178 -14 c18 -38 34
-70 36 -73 2 -3 -17 -34 -42 -68 -38 -52 -50 -62 -75 -62 -29 0 -30 2 -30 43
0 52 24 138 54 189 11 21 22 38 23 38 0 0 16 -30 34 -67z m329 -70 c0 -19 -17
-24 -44 -12 -32 15 -32 19 -4 54 l22 28 13 -29 c6 -16 12 -34 13 -41z m-727
-227 c29 -14 76 -32 106 -39 48 -12 56 -18 76 -57 l22 -44 -25 -55 c-21 -46
-26 -72 -27 -139 l0 -84 -38 6 c-98 16 -249 130 -292 221 -35 74 -31 174 10
273 l15 34 50 -46 c28 -25 75 -56 103 -70z m1623 10 c-23 -223 -171 -437 -372
-536 -115 -56 -199 -72 -389 -72 -116 0 -194 4 -245 15 -88 18 -156 41 -153
51 1 4 30 25 64 45 l62 38 71 -25 c148 -52 331 -37 500 42 94 43 138 73 209
143 76 75 111 147 113 232 l1 64 64 33 c35 18 68 33 73 34 5 0 6 -28 2 -64z
m-896 14 c0 -34 -79 -172 -147 -258 l-19 -23 -44 30 c-25 17 -63 46 -85 65
l-39 33 27 41 c21 32 36 44 69 52 24 6 81 24 128 39 96 32 110 35 110 21z
m557 -10 c156 -95 -162 -360 -432 -360 -33 0 -77 5 -97 10 l-37 11 56 86 c58
89 98 173 109 230 6 31 7 32 68 36 33 2 115 4 181 5 104 2 124 -1 152 -18z
m-890 -391 c-65 -33 -75 -33 -82 1 -4 18 -4 47 -1 65 l7 34 54 -42 54 -42 -32
-16z"/>
</g>
</svg>
